<svg xmlns="http://www.w3.org/2000/svg" xmlns:xlink="http://www.w3.org/1999/xlink" preserveAspectRatio="xMidYMid" width="50" height="51" viewBox="0 0 50 51">
  <defs>
    <style>

      .cls-2 {
        fill: #282828;
        opacity: 0.1;
      }
    </style>
  </defs>
  <path d="M4.703,25.883 C4.703,25.883 4.497,26.078 4.497,26.078 C-1.517,31.560 -1.481,40.446 4.578,45.886 C7.536,48.543 11.469,50.004 15.652,50.004 C19.794,50.004 23.700,48.567 26.650,45.960 C26.650,45.960 27.029,45.626 27.029,45.626 C27.029,45.626 27.030,45.627 27.030,45.627 C27.030,45.627 49.120,25.794 49.120,25.794 C49.120,25.794 46.895,23.798 46.895,23.798 C46.895,23.798 24.421,43.974 24.421,43.974 C22.057,46.095 18.914,47.265 15.571,47.265 C12.227,47.265 9.083,46.095 6.718,43.974 C4.353,41.849 3.050,39.026 3.050,36.022 C3.050,33.019 4.353,30.195 6.718,28.070 C6.718,28.070 32.617,4.818 32.617,4.818 C32.617,4.818 32.621,4.821 32.621,4.821 C34.196,3.485 36.255,2.749 38.440,2.749 C40.708,2.749 42.841,3.541 44.443,4.981 C46.048,6.421 46.933,8.336 46.933,10.374 C46.933,12.298 46.147,14.111 44.709,15.522 C44.709,15.522 44.711,15.522 44.711,15.522 C44.711,15.522 44.663,15.567 44.663,15.567 C44.591,15.637 44.519,15.703 44.443,15.771 C44.443,15.771 44.356,15.850 44.356,15.850 C44.356,15.850 19.297,38.225 19.297,38.225 C17.640,39.706 14.748,39.706 13.089,38.225 C12.257,37.481 11.799,36.494 11.800,35.443 C11.800,34.393 12.258,33.408 13.089,32.665 C13.089,32.665 29.549,17.966 29.549,17.966 C29.549,17.966 27.378,16.027 27.378,16.027 C27.378,16.027 10.923,30.737 10.923,30.737 C8.104,33.335 8.137,37.524 10.997,40.078 C12.405,41.336 14.276,42.027 16.268,42.027 C18.221,42.027 20.070,41.359 21.473,40.145 C21.473,40.145 21.783,39.877 21.783,39.877 C21.783,39.877 21.787,39.882 21.787,39.882 C21.787,39.882 46.588,17.842 46.588,17.842 C48.784,15.870 49.994,13.246 49.994,10.457 C49.994,7.665 48.784,5.041 46.586,3.067 C44.385,1.092 41.463,0.005 38.351,0.005 C35.241,0.005 32.317,1.092 30.118,3.067 C30.118,3.067 4.703,25.883 4.703,25.883 Z" id="path-1" class="cls-2" fill-rule="evenodd"/>
</svg>
