<svg xmlns="http://www.w3.org/2000/svg" xmlns:xlink="http://www.w3.org/1999/xlink" preserveAspectRatio="xMidYMid" width="50" height="50" viewBox="0 0 50 50">
  <defs>
    <style>

      .cls-2 {
        fill: #282828;
        opacity: 0.1;
      }
    </style>
  </defs>
  <path d="M25.000,50.001 C11.193,50.001 0.000,38.808 0.000,25.001 C0.000,11.194 11.193,0.002 25.000,0.002 C38.807,0.002 50.000,11.194 50.000,25.001 C50.000,38.808 38.807,50.001 25.000,50.001 ZM3.125,25.001 C3.125,30.479 5.152,35.473 8.479,39.311 C8.479,39.311 39.310,8.480 39.310,8.480 C35.472,5.153 30.478,3.126 25.000,3.126 C12.919,3.126 3.125,12.920 3.125,25.001 ZM41.520,10.690 C41.520,10.690 10.689,41.521 10.689,41.521 C14.527,44.848 19.522,46.876 25.000,46.876 C37.081,46.876 46.875,37.083 46.875,25.001 C46.875,19.523 44.847,14.528 41.520,10.690 Z" id="path-1" class="cls-2" fill-rule="evenodd"/>
</svg>
