<svg xmlns="http://www.w3.org/2000/svg" xmlns:xlink="http://www.w3.org/1999/xlink" preserveAspectRatio="xMidYMid" width="40" height="50" viewBox="0 0 40 50">
  <defs>
    <style>

      .cls-2 {
        fill: #282828;
        opacity: 0.1;
      }
    </style>
  </defs>
  <path d="M29.231,37.500 C29.231,37.500 10.769,37.500 10.769,37.500 C9.919,37.500 9.231,38.200 9.231,39.062 C9.231,39.926 9.919,40.625 10.769,40.625 C10.769,40.625 29.231,40.625 29.231,40.625 C30.080,40.625 30.769,39.926 30.769,39.062 C30.769,38.200 30.080,37.500 29.231,37.500 ZM35.385,7.813 C35.385,7.813 32.308,7.813 32.308,7.813 C32.308,6.087 30.930,4.687 29.231,4.687 C29.231,4.687 27.692,4.687 27.692,4.687 C27.692,4.687 27.692,3.125 27.692,3.125 C27.692,1.399 26.315,0.000 24.615,0.000 C24.615,0.000 15.385,0.000 15.385,0.000 C13.685,0.000 12.308,1.399 12.308,3.125 C12.308,3.125 12.308,4.687 12.308,4.687 C12.308,4.687 10.769,4.687 10.769,4.687 C9.070,4.687 7.692,6.087 7.692,7.813 C7.692,7.813 4.615,7.813 4.615,7.813 C2.066,7.813 0.000,9.911 0.000,12.500 C0.000,12.500 0.000,45.312 0.000,45.312 C0.000,47.901 2.066,50.000 4.615,50.000 C4.615,50.000 35.385,50.000 35.385,50.000 C37.933,50.000 40.000,47.901 40.000,45.312 C40.000,45.312 40.000,12.500 40.000,12.500 C40.000,9.911 37.933,7.813 35.385,7.813 ZM13.077,7.813 C13.077,7.813 15.385,7.813 15.385,7.813 C15.385,7.813 15.385,6.250 15.385,6.250 C15.385,4.524 16.762,3.125 18.462,3.125 C18.462,3.125 21.538,3.125 21.538,3.125 C23.238,3.125 24.615,4.524 24.615,6.250 C24.615,6.250 24.615,7.813 24.615,7.813 C24.615,7.813 26.923,7.813 26.923,7.813 C28.198,7.813 29.231,8.862 29.231,10.156 C29.231,11.451 28.198,12.500 26.923,12.500 C26.923,12.500 13.077,12.500 13.077,12.500 C11.802,12.500 10.769,11.451 10.769,10.156 C10.769,8.862 11.802,7.813 13.077,7.813 ZM36.923,43.750 C36.923,45.476 35.546,46.875 33.846,46.875 C33.846,46.875 6.154,46.875 6.154,46.875 C4.455,46.875 3.077,45.476 3.077,43.750 C3.077,43.750 3.077,14.063 3.077,14.063 C3.077,12.337 4.455,10.937 6.154,10.937 C6.154,10.937 7.692,10.937 7.692,10.937 C7.692,10.937 7.692,12.500 7.692,12.500 C7.692,14.226 9.070,15.625 10.769,15.625 C10.769,15.625 29.231,15.625 29.231,15.625 C31.101,15.625 31.765,13.999 32.241,12.455 C32.407,11.915 32.308,11.385 32.308,10.937 C32.308,10.937 33.846,10.937 33.846,10.937 C35.546,10.937 36.923,12.337 36.923,14.063 C36.923,14.063 36.923,43.750 36.923,43.750 ZM29.231,29.687 C29.231,29.687 10.769,29.687 10.769,29.687 C9.919,29.687 9.231,30.387 9.231,31.250 C9.231,32.113 9.919,32.812 10.769,32.812 C10.769,32.812 29.231,32.812 29.231,32.812 C30.080,32.812 30.769,32.113 30.769,31.250 C30.769,30.387 30.080,29.687 29.231,29.687 ZM29.231,21.875 C29.231,21.875 10.769,21.875 10.769,21.875 C9.919,21.875 9.231,22.575 9.231,23.437 C9.231,24.300 9.919,25.000 10.769,25.000 C10.769,25.000 29.231,25.000 29.231,25.000 C30.080,25.000 30.769,24.300 30.769,23.437 C30.769,22.575 30.080,21.875 29.231,21.875 Z" id="path-1" class="cls-2" fill-rule="evenodd"/>
</svg>
