<svg xmlns="http://www.w3.org/2000/svg" xmlns:xlink="http://www.w3.org/1999/xlink" preserveAspectRatio="xMidYMid" width="40" height="50" viewBox="0 0 40 50">
  <defs>
    <style>

      .cls-2 {
        fill: #282828;
        opacity: 0.1;
      }
    </style>
  </defs>
  <path d="M35.385,50.000 C35.385,50.000 4.615,50.000 4.615,50.000 C2.066,50.000 0.000,47.901 0.000,45.312 C0.000,45.312 0.000,23.438 0.000,23.438 C0.000,20.849 2.066,18.750 4.615,18.750 C4.615,18.750 6.155,18.750 6.155,18.750 C6.155,18.750 6.155,14.063 6.155,14.063 C6.155,6.296 12.372,0.000 20.042,0.000 C27.190,0.000 33.070,5.470 33.838,12.500 C33.838,12.500 30.720,12.500 30.720,12.500 C29.970,7.201 25.481,3.125 20.042,3.125 C14.076,3.125 9.241,8.021 9.241,14.063 C9.241,14.063 9.241,18.750 9.241,18.750 C9.241,18.750 35.385,18.750 35.385,18.750 C37.934,18.750 40.000,20.849 40.000,23.438 C40.000,23.438 40.000,45.312 40.000,45.312 C40.000,47.901 37.934,50.000 35.385,50.000 ZM36.923,25.000 C36.923,23.274 35.546,21.875 33.846,21.875 C33.846,21.875 6.154,21.875 6.154,21.875 C4.455,21.875 3.077,23.274 3.077,25.000 C3.077,25.000 3.077,43.750 3.077,43.750 C3.077,45.476 4.455,46.875 6.154,46.875 C6.154,46.875 33.846,46.875 33.846,46.875 C35.546,46.875 36.923,45.476 36.923,43.750 C36.923,43.750 36.923,25.000 36.923,25.000 ZM25.689,40.104 C25.014,40.790 23.918,40.790 23.243,40.104 C23.243,40.104 20.019,36.830 20.019,36.830 C20.019,36.830 16.794,40.106 16.794,40.106 C16.121,40.789 15.030,40.789 14.357,40.106 C13.684,39.423 13.684,38.315 14.357,37.631 C14.357,37.631 17.583,34.355 17.583,34.355 C17.583,34.355 14.359,31.082 14.359,31.082 C13.684,30.396 13.684,29.283 14.359,28.597 C15.035,27.911 16.130,27.911 16.806,28.597 C16.806,28.597 20.029,31.871 20.029,31.871 C20.029,31.871 23.206,28.644 23.206,28.644 C23.879,27.961 24.970,27.961 25.643,28.644 C26.316,29.328 26.316,30.436 25.643,31.119 C25.643,31.119 22.466,34.346 22.466,34.346 C22.466,34.346 25.689,37.620 25.689,37.620 C26.365,38.305 26.365,39.418 25.689,40.104 Z" id="path-1" class="cls-2" fill-rule="evenodd"/>
</svg>
